<svg xmlns="http://www.w3.org/2000/svg" xmlns:xlink="http://www.w3.org/1999/xlink" viewBox="0 0 251.79 294.47"><defs><style>.cls-1,.cls-13,.cls-14,.cls-15,.cls-6,.cls-7,.cls-8{fill:none;}.cls-2{isolation:isolate;}.cls-3{fill:#fb5630;}.cls-10,.cls-4{fill:#918a7b;mix-blend-mode:multiply;}.cls-4{opacity:0.5;}.cls-5{fill:#5e5239;}.cls-6,.cls-7{stroke:#5e5239;}.cls-6{stroke-linecap:square;stroke-width:14px;}.cls-13,.cls-14,.cls-15,.cls-6,.cls-7,.cls-8{stroke-linejoin:round;}.cls-13,.cls-14,.cls-15,.cls-7,.cls-8{stroke-linecap:round;}.cls-13,.cls-7{stroke-width:12px;}.cls-13,.cls-8{stroke:#806f4d;}.cls-8{stroke-width:8px;}.cls-9{fill:#806f4d;}.cls-10{opacity:0.25;}.cls-11{fill:#c2aa80;}.cls-12{fill:#ccb68f;}.cls-14,.cls-15{stroke:#ccb68f;}.cls-14{stroke-width:4.5px;}.cls-15{stroke-width:6px;}.cls-16{fill:#fb7050;}.cls-17{fill:#ab3300;}.cls-18{fill:#a18c66;}.cls-19{fill:#fff;}.cls-20{clip-path:url(#clip-path);}.cls-21{fill:#c8c4bd;}.cls-22{fill:#c54223;}.cls-23{fill:#c5563b;}.cls-24{fill:#862700;}.cls-25{fill:#645539;}.cls-26{fill:#a08c6a;}.cls-27{fill:#ffb48c;}.cls-28{fill:#ed037d;}</style><clipPath id="clip-path" transform="translate(-11.25 -16)"><path class="cls-1" d="M160,36.77l-.3.85.33,0q0-.42,0-.81m-.58-3.6h-1.7A20.38,20.38,0,0,1,160,36.42a16.84,16.84,0,0,0-.56-3.25"/></clipPath></defs><title>mortimer_header_graphic</title><g class="cls-2"><g id="Layer_1" data-name="Layer 1"><path class="cls-3" d="M148.84,102.49c14.5,6.5,24.5,22,24.5,48,0,25.5,45,34.5,41.5,45.5h-163c-1.11-11.5,30-10.5,32.5-23,8.13-40.67,7.45-53.51,17-71.5" transform="translate(-11.25 -16)"/><path class="cls-4" d="M98.13,160.93c0-16.9,4.1-27.55,8.1-34.24v21.22a31,31,0,0,0-8,14.47C98.19,161.9,98.13,161.42,98.13,160.93Z" transform="translate(-11.25 -16)"/><path class="cls-5" d="M136,204.66h-9.5v-2.27c-19,0-19-68.72,0-68.75v-32h11.26a14.24,14.24,0,0,1,9.67,3.46l4.57,15h0c5.46,6.09,6.92,60.63,3.7,65.88C150.34,203.93,136,204.66,136,204.66Z" transform="translate(-11.25 -16)"/><path class="cls-6" d="M142.34,197.77h39.5c1.65,0,2,.95.86,2.11l-35.36,34.89" transform="translate(-11.25 -16)"/><path class="cls-7" d="M146.77,111.44c1,.33,76.07,77.05,76.07,77.05" transform="translate(-11.25 -16)"/><path class="cls-8" d="M109.34,198.49H52.84a5,5,0,0,0-5,5V206a5,5,0,0,0,5,5h6" transform="translate(-11.25 -16)"/><path class="cls-9" d="M107,103.4c3.28-1.82,19.51-1.74,19.51-1.74v32h0v68.75h0v2.27h-13l-8.22-6.47a14,14,0,0,1-2-4.76c-6.26-5.68-7-57.37-2.1-72" transform="translate(-11.25 -16)"/><rect class="cls-10" x="103.41" y="124.24" width="46.19" height="73.44" rx="20.76" ry="20.76" transform="translate(241.76 305.92) rotate(-180)"/><rect class="cls-11" x="103.41" y="118.99" width="46.19" height="73.44" rx="20.76" ry="20.76" transform="translate(241.76 295.42) rotate(-180)"/><path class="cls-12" d="M124.17,119h2.3v14.65h0v58.79h-2.33a20.82,20.82,0,0,1-20.76-20.76V139.75A20.82,20.82,0,0,1,124.17,119Z" transform="translate(-11.25 -16)"/><path d="M124.09,168.68a2.43,2.43,0,1,1,2.42,2.42A2.42,2.42,0,0,1,124.09,168.68Z" transform="translate(-11.25 -16)"/><path class="cls-9" d="M101.63,186.68V300.85c0,3.65,3.89,3.39,7.54,3.39s7.46.26,7.46-3.39V203.68" transform="translate(-11.25 -16)"/><path class="cls-13" d="M108.78,109.83c-.34,1-39.51,52.11-39.51,52.11a2.62,2.62,0,0,1-4,.3L39.78,137.58" transform="translate(-11.25 -16)"/><path class="cls-12" d="M36.74,150.13a10.9,10.9,0,1,1,10.9-10.95A10.94,10.94,0,0,1,36.74,150.13Z" transform="translate(-11.25 -16)"/><path class="cls-14" d="M28,127s13.66.67,15,6.67" transform="translate(-11.25 -16)"/><line class="cls-14" x1="3.69" y1="117.66" x2="22.02" y2="117.66"/><line class="cls-14" x1="2.25" y1="124.49" x2="20.58" y2="124.49"/><line class="cls-14" x1="3.69" y1="131.33" x2="22.02" y2="131.33"/><path class="cls-11" d="M235,188.51c-3.06-.69-11.34-.38-11.91,2.05s7.11,4.74,13.56,5.74S259.53,194,235,188.51Z" transform="translate(-11.25 -16)"/><path class="cls-12" d="M232.36,185.06a11.36,11.36,0,0,1,3,1.14,12.43,12.43,0,0,1-.31,2.31,11.71,11.71,0,0,1-14.07,8.78,12.09,12.09,0,0,1-3.05-1.19,11.14,11.14,0,0,1,.3-2.28A11.79,11.79,0,0,1,232.36,185.06Z" transform="translate(-11.25 -16)"/><path class="cls-15" d="M232.22,188.19s5.77.2,27.82,6.9" transform="translate(-11.25 -16)"/><path class="cls-15" d="M244.3,196.54s-3-.19-11.05-1c-6.64-.7-11.54-1.16-11.54-1.16" transform="translate(-11.25 -16)"/><path class="cls-12" d="M128.54,219.21a5.06,5.06,0,0,1,9.38-2.65,3.48,3.48,0,0,1,6.39,1.7,3.49,3.49,0,0,1,6.53,1.73,3.43,3.43,0,0,1-.06.56,3.31,3.31,0,0,1,.56-.06,3.49,3.49,0,0,1,.19,7c0,.17,0,.33,0,.5v21.52a9.5,9.5,0,0,1-9.48,9.48h-.47a9.5,9.5,0,0,1-9.48-9.48V228a9.31,9.31,0,0,1,.79-3.76A5.06,5.06,0,0,1,128.54,219.21Z" transform="translate(-11.25 -16)"/><path class="cls-12" d="M94.54,275.49A3.5,3.5,0,0,1,98,272a3.31,3.31,0,0,1,.56.06,3.43,3.43,0,0,1-.06-.56,3.49,3.49,0,0,1,6.53-1.73,3.48,3.48,0,0,1,6.39-1.7,5.06,5.06,0,1,1,5,7.65,9.31,9.31,0,0,1,.79,3.76V301a9.5,9.5,0,0,1-9.48,9.48h-.47A9.5,9.5,0,0,1,97.83,301V279.47c0-.17,0-.33,0-.5A3.49,3.49,0,0,1,94.54,275.49Z" transform="translate(-11.25 -16)"/><path class="cls-3" d="M132.67,16h-.24c-16.3.13-30.37,11.92-30.37,28.25l.55,57.48h28.88V102h1.57l27-65.34C160.05,35.39,145,16,132.67,16" transform="translate(-11.25 -16)"/><path class="cls-16" d="M137.77,99.89l22.28-63.25c0-1.2-13.82-19-25.81-20.53,6.6,8,16.25,29.87.39,83.78h3.14" transform="translate(-11.25 -16)"/><polyline class="cls-17" points="126.79 84.21 98.58 84.21 98.58 18.29 139.39 18.29 126.79 84.21"/><path class="cls-9" d="M154.29,40c-2.79.78-7,1.25-12.86,1.25a57.87,57.87,0,0,1-19.32-3.28,31.74,31.74,0,1,0,32.18,2" transform="translate(-11.25 -16)"/><path class="cls-11" d="M117,64.89a13.29,13.29,0,1,0-13.28,13.28A13.29,13.29,0,0,0,117,64.89" transform="translate(-11.25 -16)"/><path class="cls-18" d="M102.19,57.32a6.82,6.82,0,0,0,.13,13.5l-.13-13.5" transform="translate(-11.25 -16)"/><path d="M109.61,59a8.32,8.32,0,0,0-14.2,5.88.47.47,0,0,0,.94,0,7.38,7.38,0,0,1,12.59-5.22.47.47,0,0,0,.67,0,.47.47,0,0,0,0-.66Z" transform="translate(-11.25 -16)"/><path class="cls-9" d="M133.49,64.89c0-11.43-6-20.69-13.28-20.69s-13.29,9.26-13.29,20.69,6,20.68,13.29,20.68,13.28-9.26,13.28-20.68" transform="translate(-11.25 -16)"/><path class="cls-3" d="M129.92,22.36c-1.3-.37,1.27-1.57,0-1.57L132.43,16c-16.3.13-30.37,11.92-30.37,28.25l.55,57.48h10l-.55-57.48c0-14.31,4.18-19.34,17.81-21.9" transform="translate(-11.25 -16)"/><path class="cls-16" d="M153.73,110.53H103.08a6.6,6.6,0,0,1,0-13.19h50.65Z" transform="translate(-11.25 -16)"/><path class="cls-3" d="M96.78,103.93a6.5,6.5,0,0,0,6.3,6.6h50.65v-6.6Z" transform="translate(-11.25 -16)"/><path class="cls-12" d="M161.93,58.66a8.92,8.92,0,0,0,2.91-6.26c0-6.92-9.66-15-21.58-15a47.9,47.9,0,0,0-11.14,1.17,12.54,12.54,0,0,0-12.29,12.54,13,13,0,0,0,.08,1.4A8.35,8.35,0,0,0,121,56.48a12.65,12.65,0,0,0,3,4c-7.9.18-11.67,4.43-11.67,9,0,10,13.61,28.56,30.45,28.56,22.29,0,28.37-21.29,26.68-29.51-.95-4.66-3.33-6.61-7.54-9.84" transform="translate(-11.25 -16)"/><path class="cls-19" d="M124.42,50.65a10.4,10.4,0,1,1,10.4,10.4,10.4,10.4,0,0,1-10.4-10.4" transform="translate(-11.25 -16)"/><path d="M134.5,52a5.16,5.16,0,1,1,5.15,5.16A5.15,5.15,0,0,1,134.5,52" transform="translate(-11.25 -16)"/><path class="cls-19" d="M139.64,49a1.9,1.9,0,1,1,1.9,1.9,1.9,1.9,0,0,1-1.9-1.9" transform="translate(-11.25 -16)"/><line x1="146.07" y1="45.48" x2="142.36" y2="48.82"/><path d="M156.85,61l-3.71,3.34a.71.71,0,1,0,1,1l3.7-3.34a.71.71,0,0,0,.05-1,.7.7,0,0,0-1,0" transform="translate(-11.25 -16)"/><line x1="135.37" y1="45.48" x2="139.07" y2="48.82"/><path d="M146.15,62l3.7,3.34a.71.71,0,0,0,1-1L147.09,61a.7.7,0,1,0-.94,1" transform="translate(-11.25 -16)"/><path class="cls-19" d="M161.38,60.42a11.11,11.11,0,1,1,11.1-11.11,11.12,11.12,0,0,1-11.1,11.11" transform="translate(-11.25 -16)"/><path class="cls-12" d="M161.38,38.91A10.4,10.4,0,1,1,151,49.31a10.4,10.4,0,0,1,10.4-10.4m0-1.41a11.82,11.82,0,1,0,11.81,11.81A11.83,11.83,0,0,0,161.38,37.5" transform="translate(-11.25 -16)"/><path d="M169.06,49.91a3.33,3.33,0,0,1-3.32-3.33,3.37,3.37,0,0,1,.41-1.58,6.18,6.18,0,0,0-1.23-.13,5.86,5.86,0,1,0,5.86,5.86,6.18,6.18,0,0,0-.13-1.23A3.38,3.38,0,0,1,169.06,49.91Z" transform="translate(-11.25 -16)"/><polyline points="86.74 88.4 88.15 88.4 88.15 87.46 86.74 87.46"/><path d="M145.67,104.4h2.72v-.94h-2.72Zm-5.45,0h2.72v-.94h-2.72Zm-5.44,0h2.72v-.94h-2.72Zm-5.44,0h2.72v-.94h-2.72Zm-5.44,0h2.72v-.94H123.9Zm-5.45,0h2.73v-.94h-2.73Zm-5.44,0h2.72v-.94H113Zm-5.44,0h2.72v-.94h-2.72Zm-5.44,0h2.72v-.94h-2.72Z" transform="translate(-11.25 -16)"/><polyline points="139.86 88.4 141.27 88.4 141.27 87.46 139.86 87.46"/><g class="cls-20"><rect class="cls-21" x="146.48" y="17.17" width="2.31" height="4.45"/></g><path class="cls-22" d="M141.72,33.17H113.56c-.13.36-.25.73-.36,1.12H142c-.08-.38-.15-.76-.23-1.12m16,0h0A20.38,20.38,0,0,1,160,36.42h0a20.38,20.38,0,0,0-2.26-3.25" transform="translate(-11.25 -16)"/><path class="cls-23" d="M157.73,33.17h-16c.08.36.15.74.23,1.12h8.69l-.76,4a26.2,26.2,0,0,1,4.44,1.58,11.7,11.7,0,0,1,5.39-2.23l.3-.85c0-.12,0-.24,0-.35a20.38,20.38,0,0,0-2.26-3.25" transform="translate(-11.25 -16)"/><path class="cls-24" d="M150.64,34.29H113.2a37,37,0,0,0-1.09,9.94c.24.26.5.53.76.79a32.09,32.09,0,0,1,9.24-7.1,55.15,55.15,0,0,0,5.46,1.63,12.54,12.54,0,0,1,4.55-.95,47.9,47.9,0,0,1,11.14-1.17,26.44,26.44,0,0,1,6.62.84l.76-4" transform="translate(-11.25 -16)"/><path class="cls-25" d="M122.11,37.92a32.09,32.09,0,0,0-9.24,7.1c.46.44.94.88,1.45,1.32a9.56,9.56,0,0,1,5.89-2.14,8.69,8.69,0,0,1,1.61.15,12.61,12.61,0,0,1,5.75-4.8,55.15,55.15,0,0,1-5.46-1.63" transform="translate(-11.25 -16)"/><path class="cls-25" d="M120.21,44.2a9.56,9.56,0,0,0-5.89,2.14A27,27,0,0,0,119.88,50a12.46,12.46,0,0,1,1.94-5.61,8.69,8.69,0,0,0-1.61-.15" transform="translate(-11.25 -16)"/><path class="cls-22" d="M113.56,33.17h-7.33a23.41,23.41,0,0,0,5.88,11.06,37,37,0,0,1,1.09-9.94c.11-.39.23-.76.36-1.12" transform="translate(-11.25 -16)"/><path class="cls-26" d="M143.26,37.43a47.9,47.9,0,0,0-11.14,1.17A12.54,12.54,0,0,0,119.88,50a32,32,0,0,0,4.6,1.82,10.55,10.55,0,0,1-.06-1.13A10.4,10.4,0,1,1,145,53a27.1,27.1,0,0,0,4.88-1.24,12,12,0,0,1-.26-2.49,11.82,11.82,0,0,1,4.75-9.46,26.45,26.45,0,0,0-11.06-2.42" transform="translate(-11.25 -16)"/><path class="cls-21" d="M134.82,40.25a10.4,10.4,0,0,0-10.4,10.4,10.55,10.55,0,0,0,.06,1.13,42,42,0,0,0,10.24,1.74A5.35,5.35,0,0,1,134.5,52a5.16,5.16,0,0,1,6.87-4.86h.17a1.9,1.9,0,0,1,1.78,1.24A5.14,5.14,0,0,1,144.81,52a5.32,5.32,0,0,1-.11,1.07l.25,0a10.43,10.43,0,0,0-10.13-12.79" transform="translate(-11.25 -16)"/><path d="M139.65,46.86A5.15,5.15,0,0,0,134.5,52a5.35,5.35,0,0,0,.22,1.51c.93,0,1.9.07,2.89.07a45.34,45.34,0,0,0,7.09-.51,5.32,5.32,0,0,0,.11-1.07,5.14,5.14,0,0,0-1.49-3.62,2,2,0,0,1,.11.65,1.9,1.9,0,1,1-2.06-1.89,5.13,5.13,0,0,0-1.72-.29" transform="translate(-11.25 -16)"/><path class="cls-21" d="M141.54,47.15h-.17A1.9,1.9,0,1,0,143.43,49a2,2,0,0,0-.11-.65,1.9,1.9,0,0,0-1.78-1.24" transform="translate(-11.25 -16)"/><path class="cls-21" d="M160,39a10.4,10.4,0,0,0-9,10.31,10.51,10.51,0,0,0,.18,2c6.78-3,8.59-8.19,8.85-12.27" transform="translate(-11.25 -16)"/><path class="cls-26" d="M160,37.58l-.33,0a11.7,11.7,0,0,0-5.39,2.23,11.82,11.82,0,0,0-4.75,9.46,12,12,0,0,0,.26,2.49c.47-.16.91-.34,1.33-.53a10.51,10.51,0,0,1-.18-2A10.4,10.4,0,0,1,160,39c0-.49,0-1,0-1.42" transform="translate(-11.25 -16)"/><path class="cls-27" d="M106.07,33s9.41,11.07,44.73,10.36c9.65-.19,17.89-7.14,17.89-10.2Z" transform="translate(-11.25 -16)"/><path d="M152.05,71.88c-11.06,0-32.89-14.6-36.65-2.83-3.07,9.58,23.08,21.74,32.73,21.74s22-10.91,18.2-23.85C163.52,57.27,164.29,71.88,152.05,71.88Z" transform="translate(-11.25 -16)"/><path d="M152.05,71.88c-11.06,0-32.89-14.6-36.65-2.83-3.07,9.58,23.08,21.74,32.73,21.74s22-10.91,18.2-23.85C163.52,57.27,164.29,71.88,152.05,71.88Z" transform="translate(-11.25 -16)"/><path class="cls-28" d="M140.29,80.94a16.58,16.58,0,0,0-2-.32,8.63,8.63,0,0,1,2.25,1.64,6.24,6.24,0,0,1,1.65,3.1.48.48,0,0,1-.37.56.48.48,0,0,1-.56-.37A5.17,5.17,0,0,0,140,83a7.79,7.79,0,0,0-2.13-1.6,12.26,12.26,0,0,0-2.12-.86c-3.26.24-6,1.59-7.37,3.68,7.07,3.84,15.26,6.53,19.8,6.53a12.83,12.83,0,0,0,1.5-.09C150.25,86.59,146.18,82.28,140.29,80.94Z" transform="translate(-11.25 -16)"/><path d="M138.25,80.62a12.62,12.62,0,0,0-1.59-.71,11.85,11.85,0,0,0-2.12-.57.47.47,0,1,0-.14.93h.06a12.53,12.53,0,0,1,1.24.3A14.54,14.54,0,0,1,138.25,80.62Z" transform="translate(-11.25 -16)"/><path d="M140,83a5.17,5.17,0,0,1,1.27,2.51.48.48,0,0,0,.56.37.48.48,0,0,0,.37-.56,6.24,6.24,0,0,0-1.65-3.1,8.63,8.63,0,0,0-2.25-1.64,14.54,14.54,0,0,0-2.55,0,12.26,12.26,0,0,1,2.12.86A7.79,7.79,0,0,1,140,83Z" transform="translate(-11.25 -16)"/><path class="cls-19" d="M144.2,76.82a31.49,31.49,0,0,0,8.63-1.36V71.85c-.26,0-.51,0-.78,0a29.81,29.81,0,0,1-8.17-1.57v6.51Z" transform="translate(-11.25 -16)"/><path class="cls-19" d="M133.76,74.74v-7.8h0a65.31,65.31,0,0,0-6.59-1.87v6.51A31.11,31.11,0,0,0,133.76,74.74Z" transform="translate(-11.25 -16)"/><path class="cls-19" d="M160.6,71.75V68.41a11.3,11.3,0,0,1-6.83,3.36v3.4A24.44,24.44,0,0,0,160.6,71.75Z" transform="translate(-11.25 -16)"/><path class="cls-19" d="M126.23,70.91v-6a19,19,0,0,0-4.62-.37C122,67,123.8,69.13,126.23,70.91Z" transform="translate(-11.25 -16)"/><path class="cls-19" d="M142.94,76.77V70c-2.67-.84-5.47-1.85-8.24-2.78v7.82A35.35,35.35,0,0,0,142.94,76.77Z" transform="translate(-11.25 -16)"/><path class="cls-19" d="M165.5,64.57c-1.09-2.32-1.76.12-4,2.8V71A11.49,11.49,0,0,0,165.5,64.57Z" transform="translate(-11.25 -16)"/><path d="M127.17,71.57V65.06l-.94-.19v6C126.53,71.14,126.85,71.36,127.17,71.57Z" transform="translate(-11.25 -16)"/><path d="M133.76,74.74l.94.32V67.24l-.94-.31h0Z" transform="translate(-11.25 -16)"/><path d="M143.88,76.82V70.31l-.94-.29v6.75C143.27,76.8,143.58,76.81,143.88,76.82Z" transform="translate(-11.25 -16)"/><path d="M153.77,75.17v-3.4l-.94.08v3.61Z" transform="translate(-11.25 -16)"/><path d="M161.54,71V67.37c-.29.35-.6.7-.94,1v3.34C160.92,71.51,161.24,71.26,161.54,71Z" transform="translate(-11.25 -16)"/><path d="M154.71,91.84h0a14.7,14.7,0,0,1-6.84,1.71,12.53,12.53,0,0,1-5.9-1.44.47.47,0,0,0-.44.84,13.63,13.63,0,0,0,6.34,1.55,15.81,15.81,0,0,0,7.35-1.86.46.46,0,0,0,.17-.64.48.48,0,0,0-.65-.17Z" transform="translate(-11.25 -16)"/></g></g></svg>